<svg width="15" height="44" viewBox="0 0 15 44" fill="none" xmlns="http://www.w3.org/2000/svg">
<path d="M12.1829 16.0283H11.1624C11.053 15.2173 10.6566 14.4723 10.0452 13.9284C9.43371 13.3845 8.64761 13.0776 7.82938 13.0635C7.01114 13.0776 6.22504 13.3845 5.61359 13.9284C5.00213 14.4723 4.60578 15.2173 4.49638 16.0283H3.47638C2.91516 16.0286 2.37703 16.2517 1.98012 16.6485C1.58321 17.0452 1.35996 17.5833 1.35938 18.1445V25.86C1.35988 26.4211 1.58298 26.9591 1.97972 27.356C2.37646 27.7528 2.91443 27.976 3.47557 27.9767H12.1826C12.7438 27.9762 13.2819 27.753 13.6788 27.3562C14.0757 26.9593 14.2989 26.4212 14.2994 25.86V18.1445C14.2988 17.5834 14.0756 17.0454 13.6788 16.6486C13.282 16.2519 12.744 16.0288 12.1829 16.0283ZM7.82938 14.1631C8.35679 14.1745 8.86449 14.3656 9.26856 14.7048C9.67262 15.0439 9.94885 15.5108 10.0516 16.0283H5.60717C5.7099 15.5108 5.98613 15.0439 6.39019 14.7048C6.79426 14.3656 7.30196 14.1745 7.82938 14.1631ZM13.1994 25.86C13.1991 26.1296 13.0919 26.388 12.9013 26.5787C12.7108 26.7693 12.4524 26.8767 12.1828 26.8771H3.47588C3.20632 26.8766 2.94794 26.7693 2.75739 26.5786C2.56684 26.388 2.45967 26.1295 2.45938 25.86V18.1445C2.45969 17.875 2.5669 17.6166 2.75748 17.426C2.94806 17.2354 3.20645 17.1282 3.47598 17.1279H12.183C12.4525 17.1282 12.7108 17.2355 12.9013 17.4261C13.0919 17.6166 13.1991 17.875 13.1994 18.1445V25.86Z" fill="white" fill-opacity="0.8"/>
</svg>
