<svg width="14" height="44" viewBox="0 0 14 44" fill="none" xmlns="http://www.w3.org/2000/svg">
<path d="M13.0726 17.6823C12.5517 18.0012 12.1202 18.447 11.8186 18.9781C11.5169 19.5092 11.3549 20.1081 11.3478 20.7188C11.3498 21.4061 11.5535 22.0778 11.9335 22.6506C12.3135 23.2233 12.8532 23.672 13.4857 23.9411C13.2363 24.7457 12.8672 25.5082 12.3909 26.2029C11.7093 27.1841 10.9966 28.1652 9.91217 28.1652C8.82777 28.1652 8.54887 27.5352 7.29917 27.5352C6.08047 27.5352 5.64667 28.1859 4.65517 28.1859C3.66367 28.1859 2.97177 27.277 2.17647 26.1616C1.12594 24.599 0.548582 22.7665 0.513672 20.884C0.513672 17.7856 2.52767 16.1435 4.51057 16.1435C5.56407 16.1435 6.44197 16.8354 7.10297 16.8354C7.73297 16.8354 8.71417 16.1021 9.91217 16.1021C10.5281 16.0862 11.1386 16.222 11.6897 16.4976C12.2408 16.7731 12.7157 17.18 13.0726 17.6823ZM9.34417 14.7905C9.87227 14.1692 10.1712 13.3856 10.1911 12.5705C10.192 12.463 10.1816 12.3558 10.1601 12.2505C9.25293 12.3391 8.41408 12.7715 7.81557 13.4589C7.28238 14.0554 6.97217 14.8181 6.93767 15.6174C6.93807 15.7146 6.94846 15.8115 6.96867 15.9066C7.04019 15.9201 7.11279 15.927 7.18557 15.9273C7.60365 15.894 8.01059 15.7761 8.38167 15.5807C8.75275 15.3852 9.08022 15.1164 9.34417 14.7905Z" fill="white" fill-opacity="0.8"/>
</svg>
