<svg width="16" height="44" viewBox="0 0 16 44" fill="none" xmlns="http://www.w3.org/2000/svg">
<path d="M14.9867 27.2022L11.1167 23.3322C11.8177 22.4032 12.2387 21.2512 12.2387 20.0002C12.2387 16.9402 9.74967 14.4502 6.68867 14.4502C3.62867 14.4502 1.13867 16.9402 1.13867 20.0002C1.13867 23.0612 3.62867 25.5502 6.68867 25.5502C7.93967 25.5502 9.09167 25.1292 10.0207 24.4282L13.8907 28.2982C14.0417 28.4492 14.2407 28.5262 14.4387 28.5262C14.6367 28.5262 14.8347 28.4502 14.9867 28.2982C15.2897 27.9952 15.2897 27.5052 14.9867 27.2022ZM2.23867 20.0002C2.23867 17.5462 4.23567 15.5502 6.68867 15.5502C9.14267 15.5502 11.1387 17.5472 11.1387 20.0002C11.1387 22.4532 9.14267 24.4502 6.68867 24.4502C4.23467 24.4502 2.23867 22.4542 2.23867 20.0002Z" fill="white" fill-opacity="0.8"/>
</svg>
